<?xml version="1.0" standalone="no"?>
<!DOCTYPE svg PUBLIC "-//W3C//DTD SVG 20010904//EN"
 "http://www.w3.org/TR/2001/REC-SVG-20010904/DTD/svg10.dtd">
<svg version="1.0" xmlns="http://www.w3.org/2000/svg"
 width="700.000000pt" height="700.000000pt" viewBox="0 0 700.000000 700.000000"
 preserveAspectRatio="xMidYMid meet">
<metadata>
Created by potrace 1.11, written by Peter Selinger 2001-2013
</metadata>
<g transform="translate(0.000000,700.000000) scale(0.100000,-0.100000)"
fill="#000000" stroke="none">
<path d="M5108 6775 c-2 -2 -49 -5 -106 -9 -56 -4 -108 -9 -115 -11 -6 -2 -28
-6 -47 -9 -203 -30 -527 -156 -736 -287 -65 -41 -203 -137 -214 -149 -3 -3
-42 -36 -86 -73 -221 -182 -494 -516 -653 -799 -18 -32 -36 -58 -40 -58 -4 0
-15 14 -25 31 -10 17 -59 85 -109 152 -334 449 -656 745 -978 900 -520 251
-996 114 -1373 -396 -31 -42 -56 -78 -56 -81 0 -3 -13 -25 -30 -49 -46 -69
-153 -301 -199 -430 -69 -199 -120 -412 -147 -622 -3 -22 -7 -51 -9 -64 -24
-147 -24 -541 0 -751 35 -306 131 -645 253 -900 76 -158 208 -364 301 -470 12
-14 44 -50 70 -80 27 -30 64 -71 82 -91 19 -20 81 -88 139 -150 111 -121 657
-669 775 -779 39 -36 131 -119 205 -185 74 -66 137 -123 140 -126 12 -14 381
-319 440 -364 36 -27 67 -52 70 -55 3 -3 32 -25 65 -49 33 -25 62 -47 65 -51
3 -3 37 -28 75 -55 39 -27 75 -53 80 -57 27 -22 174 -122 290 -199 271 -179
524 -322 737 -418 83 -37 101 -43 108 -32 3 6 35 41 71 78 35 37 107 115 159
173 51 58 101 112 109 121 9 9 34 38 56 64 22 27 45 53 50 59 6 6 35 40 65 76
30 36 57 67 60 70 21 19 402 491 455 562 11 15 87 116 169 225 268 356 366
492 591 828 326 486 739 1167 780 1287 8 24 19 52 25 63 38 80 143 448 180
632 67 333 76 714 25 1028 -3 22 -20 94 -36 159 -162 646 -608 1118 -1213
1281 -50 13 -113 27 -141 31 -27 3 -53 8 -57 10 -13 8 -313 25 -320 19z"/>
</g>
</svg>
